<?xml version="1.0"?>
<svg version="1.1" xmlns="http://www.w3.org/2000/svg" width="150" height="70" style=""><path fill="#1e10e3" d="M31.92,57.36q-0.96,1.48-0.96,1.92t0.36,0.64q0,0.04-0.72,0.6q-0.64,0.32-1.44,0.32t-1.16-0.18t-0.24-0.58q0.56-1.8,4.2-7.22t4.88-7.66q2.68-4.84,2.68-7.72q0-1.2-0.4-2.04q-0.8-1.64-3.8-1.64q-4.68,0-9.68,4.04q-4,3.24-6.12,6.86t-2.12,6.46q0,4.08,3.6,4.16l0.32,0q4.6,0,7.12-3.32q0.96-1.32,0.96-2.24t-0.4-1.16q-0.04-0.04-0.04-0.16t0.24-0.12q1.04,0,1.04,1.36q0,0.84-0.82,2.28t-2.9,2.72t-4.84,1.28t-4.4-1.72t-1.64-4.52q0-6.32,8.24-12.92q2.12-1.68,5.58-2.76t6.62-1.08t4.3,1.1t1.14,2.94q0,2.8-2.28,7.56q-0.72,1.48-3.24,5.4l3.08-3.92q2.24-2.92,7.76-8.32q1.2-1.16,2.66-1.94t2.5-0.78q1.44,0,1.44,1.52q0,1.32-1.26,3.98t-2.54,5.04t-1.56,3.12t-0.4,1.18t-0.16,0.48q0.12-0.2,2.64-3.06t7.44-7.14l6.4-5.28q0.76-0.64,1.36-0.64t0.98,1t0.38,1.62t-1.92,2.58q-5,5.12-8.48,11.2t-3.48,8.68q0,0.68,0.24,0.94t0.76,0.16t2.18-0.82t2.18-0.84q0.2,0.08,0.2,0.2q0,0.6-2.1,1.68t-3.16,1.08t-1.3-0.36q-0.72-1.04-0.72-2.52q0-3.44,3.68-9.88q2.36-4.04,7.28-10.88q-3.84,3.12-10.4,9.56t-8.6,10.08q-1.04,1.88-2.52,1.88q-0.68,0-0.68-0.48q0-0.16,0.82-1.44t3.62-6q6.88-11.96,6.88-14.4q0-0.64-0.44-0.64q-0.64,0-1.88,1.08q-4.44,3.72-9.44,9.72t-7.52,9.96z M93.8468,41.88q-1.48,0.6-2.54,0.6t-1.06-0.44q0-0.28,1.18-0.32t1.7-0.28q1.52-0.8,1.52-2.36q0-0.8-0.44-1.68q-1.28-2.28-6.2-2.28q-2.84,0-5.68,0.86t-4.76,2.64t-1.92,3.3q0,2.32,4.6,3.4l4.72,0.88q2.84,0.52,4.24,1.44q1.84,1.12,1.84,3.2q0,0.84-0.28,1.8q-1.28,4.32-6.6,6.6q-4.44,1.96-10.48,1.96q-1.72,0-3-0.16q1.28,0.72,3.36,1.24q0.16,0.04,0.16,0.16q0,0.36-0.84,0.36q-1.64,0-4.08-1.96q-3.32-0.52-4.96-1.84q-1.04-0.84-1.92-2.48t-0.88-2.96t0.52-2.2q1.2-2.12,3.04-2.12q1.4,0,1.64,2.36q0.56,4.56,0.76,5.2q0.6,1.96,2.04,3.32q1.68,0.36,3.64,0.36q4.32,0,8.48-1.72t6-4.88q0.76-1.24,0.76-2.2q0-1.88-3.32-2.92l-7.04-1.6q-2.16-0.52-3.46-1.72t-1.3-2.76q0-2.4,3-4.8q2.28-1.84,5.58-2.86t6.48-1.02t5.26,0.92q2.68,1.24,2.68,3.62t-2.44,3.34z M68.0868,59.72q-2.32-2.56-2.96-7q-0.36-2.52-0.68-2.52t-0.6,0.18t-0.56,0.78t-0.28,1.56q0,3.08,2.16,5.28q1.08,1.12,2.92,1.72z M105.2136,60.84q0-1.12,4.6-8.68q-3.28,0-4.36,0.28q-1.8,0.44-2.68,1.8q-0.32,0.44-0.54,0.48t-0.22-0.18t0.16-0.38q1.52-2.04,3-2.8t4.68-0.76l0.96,0q2.44-3.72,6.84-11.04q1.64-3.08,1.64-5q0-3.08-3.76-3.12l-0.44,0q-5.12,0-9.32,2.56t-6.64,6.36t-2.44,6.84q0,3.72,3.48,3.72q2.76,0,4.72-2.44t1.96-4.64q0-1.24-0.64-2.04q-0.08-0.08-0.08-0.2q0-0.28,0.32-0.28q0.16,0,0.24,0.12q0.8,1.04,0.8,2.48q0,2.44-2,4.98t-4.2,2.82q-0.68,0.12-1.32,0.12q-2.56,0-3.96-1.64q-1.36-1.48-1.36-4q0-1.04,0.24-2.12q1.2-5.4,6.94-9.44t12.9-4.04q2.76,0,4.74,1.18t1.98,3.3t-1.48,4.48l-7.24,11.12q1.28,0.04,4.58,0.38t4.96,0.34t2.22-0.04l1.52-2.52q3.88-6.52,8.98-12.18t8.9-7.02q0.12-0.04,0.24-0.04q0.28,0,0.28,0.32q0,0.12-0.12,0.2q-2.56,1.44-7.34,6.98t-8.26,11.38l-1.56,2.64q1.84-0.24,2.64-0.92q0.16-0.12,0.28,0.14t-0.04,0.38q-1.2,0.92-3.4,1.32q-2.8,5.2-2.8,7.32q0,1.36,1.16,1.36q0.8,0,1.86-0.54t1.42-0.92t0.44-0.38t0.04,0.26t-0.16,0.42q-0.68,0.64-2.04,1.36t-2.2,0.72t-1.24-0.28q-1.28-0.84-1.28-2.92t2.12-6.08q-1.48,0.12-2.76,0.12q-0.44,0-9.4-0.28q-2.84,4.48-4.56,8.16q-0.52,1.08-1.26,1.08t-0.74-0.6z"/><path fill="#" d=""/></svg>
